<svg width="258" height="239" viewBox="0 0 258 239" fill="none" xmlns="http://www.w3.org/2000/svg">
<path d="M227.5 56C198.334 45.1667 114.675 33.3643 91.8747 82.9642C79.2332 110.464 88.8568 120.875 104.508 120.999C117.256 121.101 130.5 102 120.5 93.5C110.5 85 102.884 86.3584 73.8732 97.4641C42.7073 109.395 29.0732 140.964 37.8732 174.964" stroke="white" stroke-width="2"/>
<path d="M28.4561 176.638C27.5479 175.432 28.2539 173.692 29.7463 173.46L45.4267 171.017C46.9625 170.778 48.1722 172.305 47.5877 173.746L41.4496 188.868C40.8651 190.308 38.933 190.56 37.9984 189.318L28.4561 176.638Z" fill="white"/>
<circle cx="231.717" cy="58.7106" r="8" transform="rotate(-75.8657 231.717 58.7106)" fill="white"/>
</svg>
