<svg width="255" height="275" viewBox="0 0 255 275" fill="none" xmlns="http://www.w3.org/2000/svg">
<path d="M246.159 59.5515C244.833 67.9594 245.059 76.8878 244.268 85.3972C242.996 99.0947 239.29 113.643 233.5 126.122C215.03 165.933 177.944 201.347 132.915 214.814C98.108 225.225 59.2067 223.873 23.4771 214.876" stroke="white" stroke-width="2" stroke-linecap="round"/>
<path d="M8.79595 211.66C7.88774 210.453 8.59377 208.713 10.0862 208.481L25.7665 206.039C27.3023 205.799 28.5121 207.327 27.9275 208.767L21.7895 223.889C21.2049 225.329 19.2729 225.582 18.3383 224.34L8.79595 211.66Z" fill="white"/>
<circle cx="244.943" cy="56.1513" r="8" transform="rotate(104.134 244.943 56.1513)" fill="white"/>
</svg>
