<svg width="70" height="61" viewBox="0 0 70 61" fill="none" xmlns="http://www.w3.org/2000/svg">
<g filter="url(#filter0_d_32_296)">
<path d="M48.2498 29.0565L49.2643 20.6535C49.4309 19.2327 48.7003 17.8531 47.4263 17.2083L43.483 15.2123L41.9477 18.2456L45.891 20.2416L45.0345 27.429L37.7394 23.7364L37.9611 21.9434L39.6446 22.7955L41.18 19.7622L33.5967 15.9238L32.0613 18.9571L34.7155 20.3005L33.6373 29.281L32.6212 28.7666C33.6658 25.0467 32.0963 21.1087 28.6318 19.1454C24.4927 16.7836 18.9882 18.4366 16.8386 22.6832C14.6891 26.9298 16.3368 31.9554 20.5835 34.1049C24.3144 35.9934 28.6299 34.958 31.0858 31.7999L37.4557 35.0242C36.4111 38.7442 37.9806 42.6822 41.4451 44.6454C45.5919 46.9921 51.0888 45.3543 53.246 41.0925C55.3955 36.8459 53.7478 31.8204 49.5012 29.6708L48.2575 29.0413L48.2498 29.0565ZM27.9312 30.2032C26.4263 31.6706 24.136 32.0926 22.1188 31.0716C19.5709 29.7819 18.5822 26.7665 19.8719 24.2186C21.1617 21.6706 24.177 20.6819 26.725 21.9717C28.7421 22.9927 29.7581 25.0883 29.4665 27.1698L25.1896 25.005L23.6542 28.0383L27.9312 30.2032ZM38.9911 31.9909L36.8678 30.9162L37.296 27.3225L41.8915 29.6485C40.7789 30.1904 39.7792 30.9609 38.9911 31.9909ZM43.352 41.8192C40.804 40.5295 39.8154 37.5142 41.1051 34.9662C41.819 33.5557 43.055 32.6571 44.4479 32.3143L43.8772 37.0552L47.2505 37.4672L47.8291 32.6731C47.8746 32.6961 47.9278 32.7039 47.9733 32.727C50.5212 34.0167 51.5099 37.032 50.2202 39.58C48.9304 42.128 45.8999 43.1089 43.352 41.8192Z" fill="#FFEA00"/>
</g>
<defs>
<filter id="filter0_d_32_296" x="0.896484" y="0.212265" width="68.291" height="60.5074" filterUnits="userSpaceOnUse" color-interpolation-filters="sRGB">
<feFlood flood-opacity="0" result="BackgroundImageFix"/>
<feColorMatrix in="SourceAlpha" type="matrix" values="0 0 0 0 0 0 0 0 0 0 0 0 0 0 0 0 0 0 127 0" result="hardAlpha"/>
<feOffset/>
<feGaussianBlur stdDeviation="7.5"/>
<feComposite in2="hardAlpha" operator="out"/>
<feColorMatrix type="matrix" values="0 0 0 0 1 0 0 0 0 0.916667 0 0 0 0 0 0 0 0 1 0"/>
<feBlend mode="normal" in2="BackgroundImageFix" result="effect1_dropShadow_32_296"/>
<feBlend mode="normal" in="SourceGraphic" in2="effect1_dropShadow_32_296" result="shape"/>
</filter>
</defs>
</svg>
