<svg width="59" height="58" viewBox="0 0 59 58" fill="none" xmlns="http://www.w3.org/2000/svg">
<g filter="url(#filter0_d_34_309)">
<path d="M26.469 27.0142L28.8561 26.5239C29.1798 26.4574 29.4273 26.2942 29.5988 26.0341C29.7703 25.7739 29.8228 25.4821 29.7563 25.1584C29.6898 24.8347 29.5226 24.5846 29.2547 24.4079C28.9861 24.2309 28.69 24.1756 28.3663 24.2421L24.8463 24.9651C24.6845 24.9983 24.5459 25.0586 24.4306 25.1458C24.3146 25.2326 24.2137 25.341 24.128 25.471C24.0423 25.6011 23.9824 25.7365 23.9483 25.8773C23.9136 26.0177 23.9129 26.1688 23.9461 26.3306L24.6691 29.8506C24.7356 30.1743 24.9031 30.4247 25.1717 30.6017C25.4396 30.7783 25.7354 30.8334 26.0591 30.7669C26.3827 30.7004 26.6303 30.5371 26.8018 30.277C26.9732 30.0169 27.0257 29.725 26.9593 29.4013L26.469 27.0142ZM32.6627 31.0972L30.2756 31.5875C29.9519 31.654 29.7043 31.8173 29.5329 32.0774C29.3614 32.3375 29.3089 32.6294 29.3754 32.9531C29.4419 33.2767 29.6094 33.5271 29.878 33.7041C30.1459 33.8808 30.4417 33.9358 30.7653 33.8693L34.2853 33.1464C34.4472 33.1131 34.5858 33.0529 34.7011 32.9657C34.8171 32.8789 34.9179 32.7705 35.0037 32.6404C35.0894 32.5104 35.1493 32.3749 35.1833 32.2341C35.218 32.0938 35.2188 31.9426 35.1855 31.7808L34.4626 28.2608C34.4293 28.099 34.368 27.9536 34.2785 27.8247C34.1884 27.6953 34.0826 27.5905 33.961 27.5104C33.8387 27.4298 33.7007 27.3738 33.547 27.3424C33.3926 27.3106 33.2345 27.3113 33.0726 27.3446C32.7489 27.411 32.5014 27.5743 32.3299 27.8344C32.1584 28.0945 32.1059 28.3864 32.1724 28.7101L32.6627 31.0972ZM16.9511 33.3333C16.4147 32.9797 16.0811 32.486 15.9503 31.8522C15.8207 31.2182 15.9327 30.633 16.2863 30.0966L25.2882 16.441C25.6419 15.9046 26.1356 15.571 26.7693 15.4402C27.4033 15.3106 27.9885 15.4226 28.525 15.7762L42.1805 24.7781C42.717 25.1318 43.0506 25.6255 43.1813 26.2592C43.311 26.8932 43.199 27.4784 42.8453 28.0149L33.8434 41.6704C33.4898 42.2069 32.9961 42.5405 32.3623 42.6712C31.7284 42.8009 31.1431 42.6889 30.6067 42.3352L16.9511 33.3333Z" fill="#FFEA00"/>
</g>
<defs>
<filter id="filter0_d_34_309" x="0.898438" y="0.388062" width="57.335" height="57.3353" filterUnits="userSpaceOnUse" color-interpolation-filters="sRGB">
<feFlood flood-opacity="0" result="BackgroundImageFix"/>
<feColorMatrix in="SourceAlpha" type="matrix" values="0 0 0 0 0 0 0 0 0 0 0 0 0 0 0 0 0 0 127 0" result="hardAlpha"/>
<feOffset/>
<feGaussianBlur stdDeviation="7.5"/>
<feComposite in2="hardAlpha" operator="out"/>
<feColorMatrix type="matrix" values="0 0 0 0 1 0 0 0 0 0.916667 0 0 0 0 0 0 0 0 1 0"/>
<feBlend mode="normal" in2="BackgroundImageFix" result="effect1_dropShadow_34_309"/>
<feBlend mode="normal" in="SourceGraphic" in2="effect1_dropShadow_34_309" result="shape"/>
</filter>
</defs>
</svg>
