<svg width="131" height="50" viewBox="0 0 131 50" fill="none" xmlns="http://www.w3.org/2000/svg">
<path d="M3.192 39V10.398H12.81C15.638 10.398 18.13 10.972 20.286 12.12C22.442 13.268 24.122 14.92 25.326 17.076C26.53 19.204 27.132 21.766 27.132 24.762C27.132 27.786 26.516 30.362 25.284 32.49C24.08 34.618 22.4 36.242 20.244 37.362C18.088 38.454 15.596 39 12.768 39H3.192ZM8.064 35.766L6.426 34.38H12.474C14.294 34.38 15.918 34.044 17.346 33.372C18.802 32.672 19.95 31.622 20.79 30.222C21.658 28.794 22.092 26.974 22.092 24.762C22.092 22.606 21.672 20.814 20.832 19.386C19.992 17.93 18.844 16.838 17.388 16.11C15.96 15.382 14.336 15.018 12.516 15.018H6.132L8.064 13.422V35.766ZM37.0397 39.588C35.4717 39.588 34.1137 39.308 32.9657 38.748C31.8457 38.16 30.9777 37.348 30.3617 36.312C29.7457 35.276 29.4377 34.044 29.4377 32.616C29.4377 31.216 29.7457 29.998 30.3617 28.962C31.0057 27.926 31.9017 27.114 33.0497 26.526C34.1977 25.91 35.5277 25.602 37.0397 25.602C39.0277 25.602 40.6237 26.05 41.8277 26.946C43.0597 27.842 43.8997 29.102 44.3477 30.726L41.9117 30.558V25.476C41.9117 24.636 41.6177 23.88 41.0297 23.208C40.4697 22.536 39.5037 22.2 38.1317 22.2C37.3477 22.2 36.4797 22.298 35.5277 22.494C34.5757 22.662 33.5957 22.984 32.5877 23.46L31.1177 19.848C32.2937 19.26 33.5257 18.812 34.8137 18.504C36.1297 18.196 37.4317 18.042 38.7197 18.042C40.5397 18.042 42.0377 18.378 43.2137 19.05C44.4177 19.694 45.3137 20.576 45.9017 21.696C46.4897 22.816 46.7837 24.104 46.7837 25.56V39H43.0457L41.9537 35.178L44.3477 34.464C43.8717 36.144 42.9897 37.418 41.7017 38.286C40.4417 39.154 38.8877 39.588 37.0397 39.588ZM38.1737 35.598C39.2937 35.598 40.1897 35.332 40.8617 34.8C41.5617 34.268 41.9117 33.54 41.9117 32.616C41.9117 31.636 41.5617 30.894 40.8617 30.39C40.1897 29.858 39.2937 29.592 38.1737 29.592C37.0537 29.592 36.1437 29.858 35.4437 30.39C34.7717 30.894 34.4357 31.636 34.4357 32.616C34.4357 33.54 34.7717 34.268 35.4437 34.8C36.1437 35.332 37.0537 35.598 38.1737 35.598ZM63.6277 18.042C65.0837 18.042 66.2317 18.28 67.0717 18.756C67.9117 19.232 68.5417 19.89 68.9617 20.73C69.3817 21.542 69.6477 22.466 69.7597 23.502C69.8997 24.51 69.9697 25.56 69.9697 26.652V39H65.0977V26.232C65.0977 24.86 64.8037 23.95 64.2157 23.502C63.6557 23.026 62.9557 22.788 62.1157 22.788C61.3317 22.788 60.5197 22.956 59.6797 23.292C58.8677 23.6 58.1257 24.034 57.4537 24.594C56.7817 25.126 56.2357 25.742 55.8157 26.442L55.4377 23.796H56.4877V39H51.6157V18.504H55.2697L56.2777 22.242L54.8497 22.284C55.6337 21.416 56.4877 20.674 57.4117 20.058C58.3357 19.414 59.3157 18.924 60.3517 18.588C61.4157 18.224 62.5077 18.042 63.6277 18.042ZM79.7455 39H74.8735V18.504H79.7455V39ZM74.2435 12.12C74.2435 11.224 74.5095 10.496 75.0415 9.936C75.6015 9.348 76.3575 9.054 77.3095 9.054C78.2055 9.054 78.9335 9.348 79.4935 9.936C80.0535 10.496 80.3335 11.224 80.3335 12.12C80.3335 13.016 80.0535 13.744 79.4935 14.304C78.9335 14.864 78.2055 15.144 77.3095 15.144C76.3575 15.144 75.6015 14.864 75.0415 14.304C74.5095 13.744 74.2435 13.016 74.2435 12.12ZM85.5514 39V10.398H96.0934C98.0814 10.398 99.8314 10.818 101.343 11.658C102.855 12.47 104.031 13.59 104.871 15.018C105.739 16.446 106.173 18.084 106.173 19.932C106.173 21.78 105.739 23.418 104.871 24.846C104.031 26.274 102.855 27.394 101.343 28.206C99.8314 28.99 98.0814 29.382 96.0934 29.382H89.4574V24.762H95.4634C97.1994 24.762 98.5714 24.342 99.5794 23.502C100.615 22.634 101.133 21.444 101.133 19.932C101.133 18.308 100.615 17.09 99.5794 16.278C98.5714 15.438 97.1994 15.018 95.4634 15.018H89.4154L90.4234 13.926V39H85.5514ZM101.133 39L94.6654 27.198H99.9994L106.467 39H101.133ZM118.896 39.462C116.796 39.462 114.948 39.014 113.352 38.118C111.756 37.222 110.51 35.976 109.614 34.38C108.746 32.756 108.312 30.894 108.312 28.794C108.312 26.638 108.746 24.762 109.614 23.166C110.51 21.542 111.756 20.282 113.352 19.386C114.948 18.49 116.796 18.042 118.896 18.042C120.996 18.042 122.844 18.49 124.44 19.386C126.036 20.282 127.268 21.542 128.136 23.166C129.032 24.762 129.48 26.638 129.48 28.794C129.48 30.894 129.032 32.756 128.136 34.38C127.268 35.976 126.036 37.222 124.44 38.118C122.844 39.014 120.996 39.462 118.896 39.462ZM118.896 34.758C120.576 34.758 121.934 34.212 122.97 33.12C124.006 32 124.524 30.544 124.524 28.752C124.524 26.96 124.006 25.518 122.97 24.426C121.934 23.306 120.576 22.746 118.896 22.746C117.216 22.746 115.858 23.292 114.822 24.384C113.786 25.476 113.268 26.932 113.268 28.752C113.268 30.544 113.786 32 114.822 33.12C115.858 34.212 117.216 34.758 118.896 34.758Z" fill="#202023"/>
<line x1="61" y1="45" x2="120" y2="45" stroke="#FF6F61" stroke-width="4"/>
<circle cx="127.5" cy="44.5" r="3.5" fill="#FFEA00"/>
</svg>
