<svg width="294" height="320" viewBox="0 0 294 320" fill="none" xmlns="http://www.w3.org/2000/svg">
<g filter="url(#filter0_d_34_33201)">
<path d="M231.406 209.887C221.467 227.281 206.524 240.621 188.703 248.008C173.068 254.441 155.876 255.987 139.056 252.472C122.236 248.957 106.454 240.52 93.4808 228.107C80.5078 215.695 70.8575 199.799 65.613 182.203C60.3686 164.607 59.7376 146.009 63.7909 128.494C68.458 108.032 79.3271 90.0779 94.731 77.3877C109.787 64.9791 128.321 58.1615 147.698 57.905C148.975 57.8861 150.249 58.2419 151.382 58.934C152.515 59.6262 153.464 60.6285 154.127 61.8333C154.791 63.038 155.143 64.3996 155.147 65.7716C155.151 67.1436 154.806 68.474 154.149 69.6198C147.012 82.2176 143.284 96.8113 143.362 111.846C143.44 126.881 147.32 141.793 154.589 154.994C161.859 168.195 172.245 179.19 184.642 186.807C197.038 194.424 210.98 198.379 224.983 198.249C226.26 198.23 227.534 198.585 228.667 199.278C229.799 199.97 230.749 200.972 231.412 202.177C232.076 203.382 232.428 204.743 232.432 206.115C232.436 207.487 232.091 208.818 231.434 209.963L231.406 209.887Z" fill="#202023"/>
</g>
<defs>
<filter id="filter0_d_34_33201" x="0.154785" y="0.904312" width="293.277" height="318.406" filterUnits="userSpaceOnUse" color-interpolation-filters="sRGB">
<feFlood flood-opacity="0" result="BackgroundImageFix"/>
<feColorMatrix in="SourceAlpha" type="matrix" values="0 0 0 0 0 0 0 0 0 0 0 0 0 0 0 0 0 0 127 0" result="hardAlpha"/>
<feOffset dy="4"/>
<feGaussianBlur stdDeviation="30.5"/>
<feComposite in2="hardAlpha" operator="out"/>
<feColorMatrix type="matrix" values="0 0 0 0 0.552028 0 0 0 0 0.684401 0 0 0 0 0.993269 0 0 0 1 0"/>
<feBlend mode="normal" in2="BackgroundImageFix" result="effect1_dropShadow_34_33201"/>
<feBlend mode="normal" in="SourceGraphic" in2="effect1_dropShadow_34_33201" result="shape"/>
</filter>
</defs>
</svg>
