<svg width="55" height="20" viewBox="0 0 55 20" fill="none" xmlns="http://www.w3.org/2000/svg">
<path d="M10.74 3C10.9267 3 11.0467 3.08 11.1 3.24L11.14 3.34C10.5667 3.34 10.14 3.68667 9.86 4.38C9.59333 5.06 9.38667 6.06667 9.24 7.4C10.3733 7.61333 11.24 8.28 11.84 9.4C12.6933 8.85333 13.3533 8.12 13.82 7.2C14.3 6.28 14.54 5.37333 14.54 4.48C14.54 3.58667 14.2 2.81333 13.52 2.16C12.8533 1.50667 11.8933 1.18 10.64 1.18C8.22667 1.18 6.36 2.04 5.04 3.76C4.12 4.97333 3.66 6.26667 3.66 7.64C3.66 9.01333 4.01333 9.94 4.72 10.42C5.01333 10.6067 5.33333 10.7 5.68 10.7C5.54667 11.0067 5.34 11.16 5.06 11.16C4.06 11.16 3.36 10.6333 2.96 9.58C2.76 9.07333 2.66 8.5 2.66 7.86C2.66 7.20667 2.80667 6.48 3.1 5.68C3.71333 3.93333 4.82 2.61333 6.42 1.72C7.64667 1.02667 9.05333 0.680001 10.64 0.680001C11.7733 0.680001 12.7333 0.860001 13.52 1.22C14.3067 1.58 14.8733 2.04 15.22 2.6C15.5933 3.22667 15.78 3.9 15.78 4.62C15.78 5.32667 15.64 6.00667 15.36 6.66C15.0933 7.31333 14.6733 7.95333 14.1 8.58C13.54 9.19333 12.88 9.68667 12.12 10.06C12.4533 10.9267 12.7533 12.54 13.02 14.9C13.1133 15.66 13.24 16.4 13.4 17.12C13.7467 18.64 14.4867 19.4 15.62 19.4C15.5933 19.64 15.42 19.76 15.1 19.76C13.4733 19.76 12.4867 18.9867 12.14 17.44C11.9667 16.7067 11.8533 15.9667 11.8 15.22C11.76 14.4733 11.72 13.6267 11.68 12.68C11.64 11.72 11.5467 10.9467 11.4 10.36C10.6667 10.6267 9.88667 10.76 9.06 10.76H8.88C8.50667 13.6533 7.87333 15.6333 6.98 16.7C6.62 17.14 6.14667 17.5067 5.56 17.8C4.98667 18.0933 4.34667 18.24 3.64 18.24C2.94667 18.24 2.36 18.12 1.88 17.88C1.41333 17.64 1.07333 17.3333 0.86 16.96C0.566667 16.4133 0.42 15.9133 0.42 15.46C0.42 15.0067 0.486667 14.5867 0.62 14.2C0.753333 13.8 0.946667 13.4133 1.2 13.04C1.45333 12.6533 1.78667 12.34 2.2 12.1C2.61333 11.86 3.06 11.74 3.54 11.74C3.80667 11.74 3.99333 11.8333 4.1 12.02L4.14 12.12C2.98 12.12 2.09333 12.6133 1.48 13.6C1.13333 14.16 0.96 14.7333 0.96 15.32C0.96 15.5867 0.993333 15.86 1.06 16.14C1.35333 17.18 2.08667 17.7 3.26 17.7C3.82 17.7 4.32 17.56 4.76 17.28C5.21333 17 5.58 16.6533 5.86 16.24C6.15333 15.8267 6.42 15.28 6.66 14.6C7.02 13.5467 7.34 12.1933 7.62 10.54C7.11333 10.3667 6.75333 10.12 6.54 9.8C6.32667 9.46667 6.22 9.21333 6.22 9.04C6.22 8.86667 6.22 8.74667 6.22 8.68C6.28667 8.33333 6.48667 8.02667 6.82 7.76C7.16667 7.48 7.61333 7.33333 8.16 7.32C8.33333 6.41333 8.51333 5.67333 8.7 5.1C8.88667 4.51333 9.15333 4.02 9.5 3.62C9.84667 3.20667 10.26 3 10.74 3ZM9.04 10.24C9.78667 10.24 10.5133 10.08 11.22 9.76C10.82 8.70667 10.1467 8.07333 9.2 7.86L8.96 10.24H9.04ZM8.08 7.78C7.6 7.82 7.26 7.96667 7.06 8.22C6.86 8.46 6.76 8.66 6.76 8.82C6.76 9.36667 7.07333 9.76667 7.7 10.02C7.86 9.00667 7.98667 8.26 8.08 7.78ZM22.1318 16.52C22.4784 16.52 22.9651 16.06 23.5918 15.14C24.2184 14.22 24.7584 13.3 25.2118 12.38L25.8918 11H26.4318C26.3518 11.16 26.2451 11.38 26.1118 11.66C25.9918 11.9267 25.7451 12.4133 25.3718 13.12C24.9984 13.8133 24.6384 14.4267 24.2918 14.96C23.9584 15.4933 23.5784 15.98 23.1518 16.42C22.7384 16.8467 22.3451 17.06 21.9718 17.06C21.5984 17.06 21.2918 16.9467 21.0518 16.72C20.7584 16.4267 20.6118 15.9133 20.6118 15.18C20.6118 14.4467 20.7384 13.48 20.9918 12.28H20.8518C19.3184 15.4267 18.0451 17 17.0318 17C16.1384 17 15.6918 16.42 15.6918 15.26C15.6918 14.42 16.0518 12.7467 16.7718 10.24C16.9318 9.66667 17.0518 9.24 17.1318 8.96C17.2118 8.66667 17.3384 8.52 17.5118 8.52C17.7518 8.52 17.9251 8.69333 18.0318 9.04C18.0851 9.18667 18.1118 9.37333 18.1118 9.6C18.1118 9.81333 18.0784 10.0533 18.0118 10.32C17.9451 10.5733 17.8051 11.0667 17.5918 11.8C17.0184 13.7733 16.7318 15.1 16.7318 15.78C16.7318 16.22 16.8651 16.44 17.1318 16.44C17.4651 16.44 17.8584 16.14 18.3118 15.54C18.7918 14.9133 19.1851 14.3067 19.4918 13.72C19.7984 13.1333 20.0451 12.6533 20.2318 12.28C20.4184 11.9067 20.6051 11.52 20.7918 11.12C20.9784 10.7067 21.1251 10.3667 21.2318 10.1C21.3518 9.83333 21.4651 9.58 21.5718 9.34C21.6784 9.08667 21.7318 8.95333 21.7318 8.94C21.8518 8.66 21.9851 8.52 22.1318 8.52C22.3718 8.52 22.5451 8.69333 22.6518 9.04C22.7051 9.2 22.7318 9.39333 22.7318 9.62C22.7318 9.84667 22.7051 10.0867 22.6518 10.34C22.5984 10.58 22.5118 10.94 22.3918 11.42C22.2718 11.9 22.1784 12.2933 22.1118 12.6C22.0451 12.9067 21.9651 13.28 21.8718 13.72C21.7384 14.4533 21.6718 15.1067 21.6718 15.68C21.6718 16.24 21.8251 16.52 22.1318 16.52ZM43.0223 2.96L41.8023 2.58C41.1623 3.56667 40.4823 5.34 39.7623 7.9C39.469 8.91333 39.1423 9.98667 38.7823 11.12C38.4357 12.24 38.029 13.2933 37.5623 14.28C37.109 15.2533 36.5823 16.14 35.9823 16.94C35.3957 17.74 34.6623 18.3733 33.7823 18.84C32.9023 19.3067 31.9157 19.54 30.8223 19.54C28.8623 19.54 27.4357 18.84 26.5423 17.44C26.049 16.6533 25.8023 15.8067 25.8023 14.9C25.8023 14.5267 25.8423 14.1467 25.9223 13.76C26.2023 12.4667 26.8357 11.5467 27.8223 11C28.3423 10.7067 28.9223 10.56 29.5623 10.56C30.9357 10.56 31.8623 11.0933 32.3423 12.16C32.5423 12.6 32.6423 13.0533 32.6423 13.52C32.6423 13.9733 32.549 14.4333 32.3623 14.9C31.909 16.02 31.169 16.58 30.1423 16.58C29.9823 16.58 29.849 16.5467 29.7423 16.48C29.6357 16.4 29.5557 16.2867 29.5023 16.14C29.8623 16.14 30.2023 16.0467 30.5223 15.86C31.0557 15.54 31.469 14.96 31.7623 14.12C31.8557 13.84 31.9023 13.6133 31.9023 13.44C31.9023 13.2533 31.889 13.0467 31.8623 12.82C31.8357 12.58 31.749 12.3067 31.6023 12C31.4557 11.6933 31.2023 11.4467 30.8423 11.26C30.4823 11.0733 30.0557 10.98 29.5623 10.98C28.2957 10.98 27.3623 11.54 26.7623 12.66C26.4157 13.3 26.2423 13.9067 26.2423 14.48C26.2423 15.0533 26.3023 15.5667 26.4223 16.02C26.769 17.2867 27.4957 18.16 28.6023 18.64C29.1223 18.8667 29.7823 18.98 30.5823 18.98C31.3823 18.98 32.189 18.7533 33.0023 18.3C33.829 17.86 34.5357 17.26 35.1223 16.5C35.7223 15.7267 36.2623 14.8667 36.7423 13.92C37.2223 12.9733 37.6557 11.9533 38.0423 10.86C38.4423 9.75333 38.8023 8.70667 39.1223 7.72C39.9757 5.18667 40.7157 3.42 41.3423 2.42C39.329 1.79333 37.869 1.48 36.9623 1.48C35.2423 1.48 33.9623 2.13333 33.1223 3.44C32.6423 4.18667 32.4023 4.95333 32.4023 5.74C32.4023 5.96667 32.429 6.2 32.4823 6.44C32.629 7.32 33.0223 7.84667 33.6623 8.02C33.7823 8.04667 33.9023 8.06 34.0223 8.06C33.9423 8.34 33.7223 8.48 33.3623 8.48C32.549 8.48 31.9757 8.04667 31.6423 7.18C31.4823 6.76667 31.4023 6.30667 31.4023 5.8C31.4023 5.29333 31.5357 4.72667 31.8023 4.1C32.3623 2.75333 33.349 1.83333 34.7623 1.34C35.429 1.11333 36.189 1 37.0423 1C37.909 1 39.429 1.34667 41.6023 2.04C42.2557 1.10667 43.0023 0.64 43.8423 0.64C43.949 0.64 44.029 0.673334 44.0823 0.74C44.1357 0.806667 44.169 0.900001 44.1823 1.02C43.3957 1.02 42.6957 1.41333 42.0823 2.2C42.6823 2.38667 43.069 2.51333 43.2423 2.58C43.8023 1.60667 44.329 1.12 44.8223 1.12C45.049 1.12 45.1823 1.18667 45.2223 1.32L45.2423 1.38C44.869 1.38 44.4757 1.87333 44.0623 2.86L46.9223 3.78C47.8157 2.1 48.749 1.26 49.7223 1.26C49.8557 1.26 49.9623 1.29333 50.0423 1.36C50.1223 1.42667 50.1757 1.52667 50.2023 1.66C49.2023 1.66 48.2823 2.42 47.4423 3.94C48.1623 4.12667 48.609 4.23333 48.7823 4.26C49.569 2.7 50.2757 1.92 50.9023 1.92C51.129 1.92 51.2623 1.98667 51.3023 2.12L51.3223 2.18C50.8823 2.18 50.349 2.92 49.7223 4.4C49.8157 4.41333 49.9423 4.42 50.1023 4.42C51.4223 4.42 52.349 4.02667 52.8823 3.24C53.109 2.93333 53.2223 2.67333 53.2223 2.46C53.2223 1.86 52.9557 1.56 52.4223 1.56C52.5423 1.37333 52.7357 1.28 53.0023 1.28C53.5223 1.28 53.8623 1.54 54.0223 2.06C54.0623 2.22 54.0823 2.37333 54.0823 2.52C54.0823 2.96 53.8957 3.39333 53.5223 3.82C52.869 4.54 51.8623 4.9 50.5023 4.9C50.1823 4.9 49.869 4.87333 49.5623 4.82C48.9757 6.32667 48.469 8.06667 48.0423 10.04C47.629 12.0133 47.4223 13.7733 47.4223 15.32C47.4223 16.8667 47.7357 17.64 48.3623 17.64C48.229 17.9067 48.0357 18.04 47.7823 18.04C46.7423 18.04 46.2223 16.9 46.2223 14.62C46.2223 13.2733 46.4357 11.6733 46.8623 9.82C47.289 7.95333 47.869 6.22667 48.6023 4.64C48.2557 4.57333 47.8023 4.46 47.2423 4.3C46.6557 5.44667 46.0357 7.12667 45.3823 9.34C44.7423 11.54 44.169 13.3467 43.6623 14.76C43.169 16.1733 42.669 16.88 42.1623 16.88C41.149 16.88 40.6423 15.6667 40.6423 13.24C40.6423 11.76 40.8557 10.0267 41.2823 8.04C41.7223 6.05333 42.3023 4.36 43.0223 2.96ZM41.9823 14.06C41.9823 15.18 42.1157 15.74 42.3823 15.74C42.6623 15.74 43.0023 15.1 43.4023 13.82C43.8157 12.54 44.3223 10.9 44.9223 8.9C45.5357 6.9 46.1357 5.32 46.7223 4.16C45.5223 3.78667 44.5823 3.48667 43.9023 3.26C43.3157 4.83333 42.829 6.86667 42.4423 9.36C42.1357 11.3733 41.9823 12.94 41.9823 14.06Z" fill="white"/>
</svg>
