<svg width="63" height="73" viewBox="0 0 63 73" fill="none" xmlns="http://www.w3.org/2000/svg">
<g filter="url(#filter0_d_34_33152)">
<path d="M15.8894 38.658L21.0826 47.3501C20.5472 47.4539 20.0173 47.6307 19.5209 47.9273C17.1886 49.3207 16.4308 52.3282 17.8242 54.6604C19.2176 56.9927 22.2251 57.7505 24.5573 56.3571C26.721 55.0644 27.512 52.3677 26.487 50.1203L26.5338 50.0923L20.3782 39.7891L24.1248 37.5507L22.446 34.7408L15.8894 38.658Z" fill="#FFEA00"/>
<path d="M39.4305 20.4081L42.5251 30.0489C41.9802 30.029 41.4241 30.0815 40.8734 30.2582C38.2866 31.0886 36.8688 33.847 37.6991 36.4338C38.5294 39.0206 41.2879 40.4385 43.8747 39.6081C46.2745 38.8378 47.6544 36.3895 47.1638 33.9687L47.2158 33.952L43.5476 22.5243L47.7031 21.1905L46.7027 18.0738L39.4305 20.4081Z" fill="#FFEA00"/>
<path d="M23.295 20.0383L28.8995 28.471C28.3697 28.6004 27.849 28.8024 27.3673 29.1225C25.1047 30.6263 24.4921 33.6667 25.9959 35.9293C27.4997 38.192 30.5401 38.8046 32.8028 37.3008C34.9019 35.9057 35.5624 33.174 34.4307 30.9784L34.4762 30.9482L27.8329 20.9526L31.4677 18.5368L29.6559 15.8107L23.295 20.0383Z" fill="#FFEA00"/>
</g>
<defs>
<filter id="filter0_d_34_33152" x="0.889648" y="0.81073" width="61.8135" height="71.2443" filterUnits="userSpaceOnUse" color-interpolation-filters="sRGB">
<feFlood flood-opacity="0" result="BackgroundImageFix"/>
<feColorMatrix in="SourceAlpha" type="matrix" values="0 0 0 0 0 0 0 0 0 0 0 0 0 0 0 0 0 0 127 0" result="hardAlpha"/>
<feOffset/>
<feGaussianBlur stdDeviation="7.5"/>
<feComposite in2="hardAlpha" operator="out"/>
<feColorMatrix type="matrix" values="0 0 0 0 1 0 0 0 0 0.916667 0 0 0 0 0 0 0 0 1 0"/>
<feBlend mode="normal" in2="BackgroundImageFix" result="effect1_dropShadow_34_33152"/>
<feBlend mode="normal" in="SourceGraphic" in2="effect1_dropShadow_34_33152" result="shape"/>
</filter>
</defs>
</svg>
